<?xml version="1.0" encoding="UTF-8"?>
<!-- Generated by Pixelmator Pro 3.6.14 -->
<svg width="6000" height="4500" viewBox="0 0 6000 4500" xmlns="http://www.w3.org/2000/svg" xmlns:xlink="http://www.w3.org/1999/xlink">
    <g id="iMac-24-in">
        <g id="Shadows" style="mix-blend-mode:multiply;isolation:isolate">
            <g id="No-Shadow">
                <path id="Position" fill="none" stroke="none" d="M 445 4258 L 5165 4258 L 5165 242 L 445 242 Z"/>
            </g>
        </g>
        <path id="Feet" fill="#8c8c8c" fill-rule="evenodd" stroke="#000000" stroke-width="4" stroke-linecap="round" stroke-linejoin="round" d="M 3206 4217.049805 C 3206 4218.87207 3206 4219.782715 3206.382568 4220.46582 C 3206.652832 4220.94873 3207.05127 4221.347168 3207.53418 4221.617676 C 3208.217285 4222 3209.128174 4222 3210.949951 4222 L 3344.050049 4222 C 3345.87207 4222 3346.782715 4222 3347.46582 4221.617676 C 3347.94873 4221.347168 3348.347168 4220.94873 3348.617432 4220.46582 C 3349 4219.782715 3349 4218.87207 3349 4217.049805 L 3349 4214 L 3206 4214 Z M 2261 4217.049805 C 2261 4218.87207 2261 4219.782715 2261.382568 4220.46582 C 2261.652832 4220.94873 2262.051514 4221.347168 2262.53418 4221.617676 C 2263.217041 4222 2264.128174 4222 2265.949951 4222 L 2399.050049 4222 C 2400.871826 4222 2401.782715 4222 2402.46582 4221.617676 C 2402.948486 4221.347168 2403.347168 4220.94873 2403.617432 4220.46582 C 2404 4219.782715 2404 4218.87207 2404 4217.049805 L 2404 4214 L 2261 4214 Z"/>
        <path id="Stand-Base" fill="#c6c6c6" fill-rule="evenodd" stroke="#000000" stroke-width="4" stroke-linecap="round" stroke-linejoin="round" d="M 2245 4212.350098 C 2245 4212.95752 2245 4213.260742 2245.127441 4213.48877 C 2245.217529 4213.649414 2245.350586 4213.782227 2245.511475 4213.872559 C 2245.739014 4214 2246.042725 4214 2246.649902 4214 L 3363.350098 4214 C 3363.957275 4214 3364.260742 4214 3364.48877 4213.872559 C 3364.649414 4213.782227 3364.782227 4213.649414 3364.872559 4213.48877 C 3365 4213.260742 3365 4212.95752 3365 4212.350098 L 3365 4170 L 2245 4170 Z"/>
        <path id="Stand" fill="#a8a7a7" fill-rule="evenodd" stroke="#000000" stroke-width="4" stroke-linecap="round" stroke-linejoin="round" d="M 2245 4170 L 3365 4170 L 3365 3480 L 2245 3480 Z"/>
        <path id="Screen-Case" fill="#c6c6c6" fill-rule="evenodd" stroke="#000000" stroke-width="4" stroke-linecap="round" stroke-linejoin="round" d="M 447 3351.300049 C 447 3398.669189 447 3422.354004 456.945313 3440.112305 C 463.974091 3452.663086 474.336731 3463.025879 486.887543 3470.054688 C 504.646179 3480 528.330811 3480 575.700012 3480 L 5034.299805 3480 C 5081.668945 3480 5105.353516 3480 5123.112305 3470.054688 C 5135.663086 3463.025879 5146.025879 3452.663086 5153.054688 3440.112305 C 5163 3422.354004 5163 3398.669189 5163 3351.300049 L 5163 3002 L 447 3002 Z"/>
        <path id="Screen-Outline-2" fill="#ece3e3" fill-rule="evenodd" stroke="#000000" stroke-width="4" stroke-linecap="round" stroke-linejoin="round" d="M 447 3002 L 5163 3002 L 5163 372.700195 C 5163 325.331055 5163 301.646484 5153.054688 283.887695 C 5146.025879 271.336914 5135.663086 260.974121 5123.112305 253.945313 C 5105.353516 244 5081.668945 244 5034.299805 244 L 575.700012 244 C 528.330811 244 504.646179 244 486.887543 253.945313 C 474.336731 260.974121 463.974091 271.336914 456.945313 283.887695 C 447 301.645996 447 325.331055 447 372.700195 Z"/>
        <path id="Screen-Outline-1" fill="#000000" fill-rule="evenodd" stroke="none" d="M 559 2881.75 C 559 2884.786621 559 2886.304688 559.637512 2887.443115 C 560.088074 2888.247559 560.75238 2888.911865 561.556885 2889.362305 C 562.695251 2890 564.213501 2890 567.25 2890 L 5042.75 2890 C 5045.786621 2890 5047.304688 2890 5048.442871 2889.362305 C 5049.247559 2888.911865 5049.911621 2888.247559 5050.362305 2887.443115 C 5051 2886.304688 5051 2884.786621 5051 2881.75 L 5051 366.25 C 5051 363.213867 5051 361.695313 5050.362305 360.556641 C 5049.911621 359.752441 5049.247559 359.087891 5048.442871 358.637695 C 5047.304688 358 5045.786133 358 5042.75 358 L 567.25 358 C 564.213501 358 562.695251 358 561.556885 358.637695 C 560.75238 359.087891 560.088074 359.751953 559.637512 360.556641 C 559 361.695313 559 363.213867 559 366.25 Z"/>
        <g id="Camera">
            <path id="Camera-Shape-3" fill="none" stroke="#252525" stroke-width="4" stroke-linecap="round" stroke-linejoin="round" d="M 2822 299 C 2822 289.611328 2814.388916 282 2805 282 C 2795.611084 282 2788 289.611328 2788 299 C 2788 308.388672 2795.611084 316 2805 316 C 2814.388916 316 2822 308.388672 2822 299 Z"/>
            <path id="Camera-Shape-2" fill="#252525" fill-rule="evenodd" stroke="none" d="M 2818 299 C 2818 291.820313 2812.179688 286 2805 286 C 2797.820313 286 2792 291.820313 2792 299 C 2792 306.179688 2797.820313 312 2805 312 C 2812.179688 312 2818 306.179688 2818 299 Z"/>
            <path id="Camera-Shape-1" fill="#3c3c3c" fill-rule="evenodd" stroke="none" d="M 2811 299 C 2811 295.686523 2808.313721 293 2805 293 C 2801.686279 293 2799 295.686523 2799 299 C 2799 302.313477 2801.686279 305 2805 305 C 2808.313721 305 2811 302.313477 2811 299 Z"/>
        </g>
        <path id="Display" fill="#fff4d0" fill-rule="evenodd" stroke="none" d="M 565 2884 L 5045 2884 L 5045 364 L 565 364 Z"/>
    </g>
    <defs>
        <path id="path1" d="M 1870 1985 L 1870 729 L 3714 729 L 3714 1985 L 1870 1985 Z"/>
    </defs>
    <text id="login--signup" xml:space="preserve"><textPath xlink:href="#path1" startOffset="1322.902359"><tspan font-family="Songti SC" font-size="288" font-weight="700" fill="#000000" xml:space="preserve">login / signup</tspan></textPath></text>
    <defs>
        <path id="path2" d="M 1870 3541 L 1870 2285 L 3714 2285 L 3714 3541 L 1870 3541 Z"/>
    </defs>
    <text id="non-hai-un-account" xml:space="preserve"><textPath xlink:href="#path2" startOffset="1448.402359"><tspan font-family="Songti SC" font-size="96" font-weight="700" fill="#000000" xml:space="preserve">non hai un account? registrati </tspan><tspan font-family="Songti SC" font-size="144" font-weight="800" fill="#000000" text-decoration="underline" xml:space="preserve">qui</tspan></textPath></text>
    <filter id="filter1" x="0" y="0" width="6000" height="4500" filterUnits="userSpaceOnUse" primitiveUnits="userSpaceOnUse" color-interpolation-filters="sRGB">
        <feGaussianBlur stdDeviation="5"/>
        <feOffset dx="-0" dy="2" result="offsetblur"/>
        <feFlood flood-color="#000000" flood-opacity="0.5"/>
        <feComposite in2="offsetblur" operator="in"/>
        <feMerge>
            <feMergeNode/>
            <feMergeNode in="SourceGraphic"/>
        </feMerge>
    </filter>
    <path id="Rectangle" fill="#7f7e7e" fill-rule="evenodd" stroke="none" filter="url(#filter1)" d="M 1835 2039 L 3679 2039 L 3679 783 L 1835 783 Z"/>
    <filter id="filter2" x="0" y="0" width="6000" height="4500" filterUnits="userSpaceOnUse" primitiveUnits="userSpaceOnUse" color-interpolation-filters="sRGB">
        <feGaussianBlur stdDeviation="5"/>
        <feOffset dx="-0" dy="2" result="offsetblur"/>
        <feFlood flood-color="#000000" flood-opacity="0.5"/>
        <feComposite in2="offsetblur" operator="in"/>
        <feMerge>
            <feMergeNode/>
            <feMergeNode in="SourceGraphic"/>
        </feMerge>
    </filter>
    <path id="path3" fill="#d5d5d5" fill-rule="evenodd" stroke="none" filter="url(#filter2)" d="M 2140 1358 L 3374 1358 L 3374 1090 L 2140 1090 Z"/>
    <filter id="filter3" x="0" y="0" width="6000" height="4500" filterUnits="userSpaceOnUse" primitiveUnits="userSpaceOnUse" color-interpolation-filters="sRGB">
        <feGaussianBlur stdDeviation="5"/>
        <feOffset dx="-0" dy="2" result="offsetblur"/>
        <feFlood flood-color="#000000" flood-opacity="0.5"/>
        <feComposite in2="offsetblur" operator="in"/>
        <feMerge>
            <feMergeNode/>
            <feMergeNode in="SourceGraphic"/>
        </feMerge>
    </filter>
    <path id="Rectangle-copy" fill="#d5d5d5" fill-rule="evenodd" stroke="none" filter="url(#filter3)" d="M 2140 1825 L 3374 1825 L 3374 1557 L 2140 1557 Z"/>
</svg>
